<?xml version="1.0" encoding="UTF-8" standalone="no"?>
<!DOCTYPE svg PUBLIC "-//W3C//DTD SVG 1.1//EN"
 "http://www.w3.org/Graphics/SVG/1.1/DTD/svg11.dtd">
<!-- Generated by graphviz version 3.0.0 (20220226.1711)
 -->
<!-- Title: dependencies Pages: 1 -->
<svg width="401pt" height="247pt"
 viewBox="0.00 0.00 401.00 246.80" xmlns="http://www.w3.org/2000/svg" xmlns:xlink="http://www.w3.org/1999/xlink">
<g id="graph0" class="graph" transform="scale(1 1) rotate(0) translate(4 242.8)">
<title>dependencies</title>
<polygon fill="white" stroke="transparent" points="-4,4 -4,-242.8 397,-242.8 397,4 -4,4"/>
<text text-anchor="middle" x="196.5" y="-8.2" font-family="sans-serif" font-size="14.00">dependencies</text>
<g id="clust1" class="cluster">
<title>cluster_UsersModule</title>
<polygon fill="none" stroke="black" stroke-dasharray="1,5" points="8,-32.8 8,-230.8 385,-230.8 385,-32.8 8,-32.8"/>
</g>
<g id="clust6" class="cluster">
<title>cluster_UsersModule_providers</title>
<polygon fill="none" stroke="black" points="237,-40.8 237,-92.8 377,-92.8 377,-40.8 237,-40.8"/>
</g>
<g id="clust4" class="cluster">
<title>cluster_UsersModule_exports</title>
<polygon fill="none" stroke="black" points="123,-170.8 123,-222.8 233,-222.8 233,-170.8 123,-170.8"/>
</g>
<g id="clust3" class="cluster">
<title>cluster_UsersModule_imports</title>
<polygon fill="none" stroke="black" points="16,-40.8 16,-92.8 229,-92.8 229,-40.8 16,-40.8"/>
</g>
<!-- FilesModule -->
<g id="node1" class="node">
<title>FilesModule</title>
<polygon fill="#8dd3c7" stroke="black" points="221.28,-84.8 218.28,-88.8 197.28,-88.8 194.28,-84.8 134.72,-84.8 134.72,-48.8 221.28,-48.8 221.28,-84.8"/>
<text text-anchor="middle" x="178" y="-62.6" font-family="Times,serif" font-size="14.00">FilesModule</text>
</g>
<!-- UsersModule -->
<g id="node3" class="node">
<title>UsersModule</title>
<polygon fill="#8dd3c7" stroke="black" points="223.94,-149.8 220.94,-153.8 199.94,-153.8 196.94,-149.8 132.06,-149.8 132.06,-113.8 223.94,-113.8 223.94,-149.8"/>
<text text-anchor="middle" x="178" y="-127.6" font-family="Times,serif" font-size="14.00">UsersModule</text>
</g>
<!-- FilesModule&#45;&gt;UsersModule -->
<g id="edge1" class="edge">
<title>FilesModule&#45;&gt;UsersModule</title>
<path fill="none" stroke="black" d="M178,-84.91C178,-84.91 178,-103.79 178,-103.79"/>
<polygon fill="black" stroke="black" points="174.5,-103.79 178,-113.79 181.5,-103.79 174.5,-103.79"/>
</g>
<!-- StripeModule -->
<g id="node2" class="node">
<title>StripeModule</title>
<polygon fill="#8dd3c7" stroke="black" points="116.49,-84.8 113.49,-88.8 92.49,-88.8 89.49,-84.8 23.51,-84.8 23.51,-48.8 116.49,-48.8 116.49,-84.8"/>
<text text-anchor="middle" x="70" y="-62.6" font-family="Times,serif" font-size="14.00">StripeModule</text>
</g>
<!-- StripeModule&#45;&gt;UsersModule -->
<g id="edge2" class="edge">
<title>StripeModule&#45;&gt;UsersModule</title>
<path fill="none" stroke="black" d="M70,-84.91C70,-104.14 70,-131.8 70,-131.8 70,-131.8 122.2,-131.8 122.2,-131.8"/>
<polygon fill="black" stroke="black" points="122.2,-135.3 132.2,-131.8 122.2,-128.3 122.2,-135.3"/>
</g>
<!-- UsersService  -->
<g id="node4" class="node">
<title>UsersService </title>
<polygon fill="#fb8072" stroke="black" points="224.86,-214.8 131.14,-214.8 131.14,-178.8 224.86,-178.8 224.86,-214.8"/>
<text text-anchor="middle" x="178" y="-192.6" font-family="Times,serif" font-size="14.00">UsersService </text>
</g>
<!-- UsersModule&#45;&gt;UsersService  -->
<g id="edge3" class="edge">
<title>UsersModule&#45;&gt;UsersService </title>
<path fill="none" stroke="black" stroke-dasharray="5,2" d="M178,-149.91C178,-149.91 178,-168.79 178,-168.79"/>
<polygon fill="black" stroke="black" points="174.5,-168.79 178,-178.79 181.5,-168.79 174.5,-168.79"/>
</g>
<!-- UsersService -->
<g id="node5" class="node">
<title>UsersService</title>
<ellipse fill="#fdb462" stroke="black" cx="307" cy="-66.8" rx="61.97" ry="18"/>
<text text-anchor="middle" x="307" y="-62.6" font-family="Times,serif" font-size="14.00">UsersService</text>
</g>
<!-- UsersService&#45;&gt;UsersModule -->
<g id="edge4" class="edge">
<title>UsersService&#45;&gt;UsersModule</title>
<path fill="none" stroke="black" d="M307,-84.91C307,-104.14 307,-131.8 307,-131.8 307,-131.8 233.84,-131.8 233.84,-131.8"/>
<polygon fill="black" stroke="black" points="233.84,-128.3 223.84,-131.8 233.84,-135.3 233.84,-128.3"/>
</g>
</g>
</svg>
