<?xml version="1.0" encoding="UTF-8" standalone="no"?>
<!DOCTYPE svg PUBLIC "-//W3C//DTD SVG 1.1//EN"
 "http://www.w3.org/Graphics/SVG/1.1/DTD/svg11.dtd">
<!-- Generated by graphviz version 3.0.0 (20220226.1711)
 -->
<!-- Title: dependencies Pages: 1 -->
<svg width="1689pt" height="247pt"
 viewBox="0.00 0.00 1689.00 246.80" xmlns="http://www.w3.org/2000/svg" xmlns:xlink="http://www.w3.org/1999/xlink">
<g id="graph0" class="graph" transform="scale(1 1) rotate(0) translate(4 242.8)">
<title>dependencies</title>
<polygon fill="white" stroke="transparent" points="-4,4 -4,-242.8 1685,-242.8 1685,4 -4,4"/>
<text text-anchor="middle" x="840.5" y="-8.2" font-family="sans-serif" font-size="14.00">dependencies</text>
<g id="clust1" class="cluster">
<title>cluster_AuthenticationModule</title>
<polygon fill="none" stroke="black" stroke-dasharray="1,5" points="8,-32.8 8,-230.8 1673,-230.8 1673,-32.8 8,-32.8"/>
</g>
<g id="clust4" class="cluster">
<title>cluster_AuthenticationModule_exports</title>
<polygon fill="none" stroke="black" points="711,-170.8 711,-222.8 871,-222.8 871,-170.8 711,-170.8"/>
</g>
<g id="clust6" class="cluster">
<title>cluster_AuthenticationModule_providers</title>
<polygon fill="none" stroke="black" points="420,-40.8 420,-92.8 1665,-92.8 1665,-40.8 420,-40.8"/>
</g>
<g id="clust3" class="cluster">
<title>cluster_AuthenticationModule_imports</title>
<polygon fill="none" stroke="black" points="16,-40.8 16,-92.8 412,-92.8 412,-40.8 16,-40.8"/>
</g>
<!-- EmailConfirmationModule -->
<g id="node1" class="node">
<title>EmailConfirmationModule</title>
<polygon fill="#8dd3c7" stroke="black" points="404.42,-84.8 401.42,-88.8 380.42,-88.8 377.42,-84.8 235.58,-84.8 235.58,-48.8 404.42,-48.8 404.42,-84.8"/>
<text text-anchor="middle" x="320" y="-62.6" font-family="Times,serif" font-size="14.00">EmailConfirmationModule</text>
</g>
<!-- AuthenticationModule -->
<g id="node4" class="node">
<title>AuthenticationModule</title>
<polygon fill="#8dd3c7" stroke="black" points="862.25,-149.8 859.25,-153.8 838.25,-153.8 835.25,-149.8 719.75,-149.8 719.75,-113.8 862.25,-113.8 862.25,-149.8"/>
<text text-anchor="middle" x="791" y="-127.6" font-family="Times,serif" font-size="14.00">AuthenticationModule</text>
</g>
<!-- EmailConfirmationModule&#45;&gt;AuthenticationModule -->
<g id="edge1" class="edge">
<title>EmailConfirmationModule&#45;&gt;AuthenticationModule</title>
<path fill="none" stroke="black" d="M320,-85.07C320,-103.36 320,-128.8 320,-128.8 320,-128.8 709.72,-128.8 709.72,-128.8"/>
<polygon fill="black" stroke="black" points="709.72,-132.3 719.72,-128.8 709.72,-125.3 709.72,-132.3"/>
</g>
<!-- SmsModule -->
<g id="node2" class="node">
<title>SmsModule</title>
<polygon fill="#8dd3c7" stroke="black" points="217.68,-84.8 214.68,-88.8 193.68,-88.8 190.68,-84.8 134.32,-84.8 134.32,-48.8 217.68,-48.8 217.68,-84.8"/>
<text text-anchor="middle" x="176" y="-62.6" font-family="Times,serif" font-size="14.00">SmsModule</text>
</g>
<!-- SmsModule&#45;&gt;AuthenticationModule -->
<g id="edge2" class="edge">
<title>SmsModule&#45;&gt;AuthenticationModule</title>
<path fill="none" stroke="black" d="M176,-84.93C176,-105.37 176,-135.8 176,-135.8 176,-135.8 709.55,-135.8 709.55,-135.8"/>
<polygon fill="black" stroke="black" points="709.55,-139.3 719.55,-135.8 709.55,-132.3 709.55,-139.3"/>
</g>
<!-- UsersModule -->
<g id="node3" class="node">
<title>UsersModule</title>
<polygon fill="#8dd3c7" stroke="black" points="115.94,-84.8 112.94,-88.8 91.94,-88.8 88.94,-84.8 24.06,-84.8 24.06,-48.8 115.94,-48.8 115.94,-84.8"/>
<text text-anchor="middle" x="70" y="-62.6" font-family="Times,serif" font-size="14.00">UsersModule</text>
</g>
<!-- UsersModule&#45;&gt;AuthenticationModule -->
<g id="edge3" class="edge">
<title>UsersModule&#45;&gt;AuthenticationModule</title>
<path fill="none" stroke="black" d="M70,-84.81C70,-107.29 70,-142.8 70,-142.8 70,-142.8 709.56,-142.8 709.56,-142.8"/>
<polygon fill="black" stroke="black" points="709.56,-146.3 719.56,-142.8 709.56,-139.3 709.56,-146.3"/>
</g>
<!-- AuthenticationService  -->
<g id="node5" class="node">
<title>AuthenticationService </title>
<polygon fill="#fb8072" stroke="black" points="863.18,-214.8 718.82,-214.8 718.82,-178.8 863.18,-178.8 863.18,-214.8"/>
<text text-anchor="middle" x="791" y="-192.6" font-family="Times,serif" font-size="14.00">AuthenticationService </text>
</g>
<!-- AuthenticationModule&#45;&gt;AuthenticationService  -->
<g id="edge4" class="edge">
<title>AuthenticationModule&#45;&gt;AuthenticationService </title>
<path fill="none" stroke="black" stroke-dasharray="5,2" d="M791,-149.91C791,-149.91 791,-168.79 791,-168.79"/>
<polygon fill="black" stroke="black" points="787.5,-168.79 791,-178.79 794.5,-168.79 787.5,-168.79"/>
</g>
<!-- AuthenticationService -->
<g id="node6" class="node">
<title>AuthenticationService</title>
<ellipse fill="#fdb462" stroke="black" cx="1560" cy="-66.8" rx="97.27" ry="18"/>
<text text-anchor="middle" x="1560" y="-62.6" font-family="Times,serif" font-size="14.00">AuthenticationService</text>
</g>
<!-- AuthenticationService&#45;&gt;AuthenticationModule -->
<g id="edge5" class="edge">
<title>AuthenticationService&#45;&gt;AuthenticationModule</title>
<path fill="none" stroke="black" d="M1560,-84.81C1560,-107.29 1560,-142.8 1560,-142.8 1560,-142.8 872.31,-142.8 872.31,-142.8"/>
<polygon fill="black" stroke="black" points="872.31,-139.3 862.31,-142.8 872.31,-146.3 872.31,-139.3"/>
</g>
<!-- JwtRefreshTokenStrategy -->
<g id="node7" class="node">
<title>JwtRefreshTokenStrategy</title>
<ellipse fill="#fdb462" stroke="black" cx="1333" cy="-66.8" rx="111.17" ry="18"/>
<text text-anchor="middle" x="1333" y="-62.6" font-family="Times,serif" font-size="14.00">JwtRefreshTokenStrategy</text>
</g>
<!-- JwtRefreshTokenStrategy&#45;&gt;AuthenticationModule -->
<g id="edge6" class="edge">
<title>JwtRefreshTokenStrategy&#45;&gt;AuthenticationModule</title>
<path fill="none" stroke="black" d="M1333,-84.93C1333,-105.37 1333,-135.8 1333,-135.8 1333,-135.8 872.41,-135.8 872.41,-135.8"/>
<polygon fill="black" stroke="black" points="872.41,-132.3 862.41,-135.8 872.41,-139.3 872.41,-132.3"/>
</g>
<!-- JwtStrategy -->
<g id="node8" class="node">
<title>JwtStrategy</title>
<ellipse fill="#fdb462" stroke="black" cx="1147" cy="-66.8" rx="56.77" ry="18"/>
<text text-anchor="middle" x="1147" y="-62.6" font-family="Times,serif" font-size="14.00">JwtStrategy</text>
</g>
<!-- JwtStrategy&#45;&gt;AuthenticationModule -->
<g id="edge7" class="edge">
<title>JwtStrategy&#45;&gt;AuthenticationModule</title>
<path fill="none" stroke="black" d="M1147,-85.07C1147,-103.36 1147,-128.8 1147,-128.8 1147,-128.8 872.61,-128.8 872.61,-128.8"/>
<polygon fill="black" stroke="black" points="872.61,-125.3 862.61,-128.8 872.61,-132.3 872.61,-125.3"/>
</g>
<!-- JwtTwoFactorStrategy -->
<g id="node9" class="node">
<title>JwtTwoFactorStrategy</title>
<ellipse fill="#fdb462" stroke="black" cx="973" cy="-66.8" rx="99.01" ry="18"/>
<text text-anchor="middle" x="973" y="-62.6" font-family="Times,serif" font-size="14.00">JwtTwoFactorStrategy</text>
</g>
<!-- JwtTwoFactorStrategy&#45;&gt;AuthenticationModule -->
<g id="edge8" class="edge">
<title>JwtTwoFactorStrategy&#45;&gt;AuthenticationModule</title>
<path fill="none" stroke="black" d="M973,-84.81C973,-100.85 973,-121.8 973,-121.8 973,-121.8 872.41,-121.8 872.41,-121.8"/>
<polygon fill="black" stroke="black" points="872.41,-118.3 862.41,-121.8 872.41,-125.3 872.41,-118.3"/>
</g>
<!-- LocalStrategy -->
<g id="node10" class="node">
<title>LocalStrategy</title>
<ellipse fill="#fdb462" stroke="black" cx="791" cy="-66.8" rx="65.4" ry="18"/>
<text text-anchor="middle" x="791" y="-62.6" font-family="Times,serif" font-size="14.00">LocalStrategy</text>
</g>
<!-- LocalStrategy&#45;&gt;AuthenticationModule -->
<g id="edge9" class="edge">
<title>LocalStrategy&#45;&gt;AuthenticationModule</title>
<path fill="none" stroke="black" d="M791,-84.91C791,-84.91 791,-103.79 791,-103.79"/>
<polygon fill="black" stroke="black" points="787.5,-103.79 791,-113.79 794.5,-103.79 787.5,-103.79"/>
</g>
<!-- TwoFactorAuthenticationService -->
<g id="node11" class="node">
<title>TwoFactorAuthenticationService</title>
<ellipse fill="#fdb462" stroke="black" cx="568" cy="-66.8" rx="139.51" ry="18"/>
<text text-anchor="middle" x="568" y="-62.6" font-family="Times,serif" font-size="14.00">TwoFactorAuthenticationService</text>
</g>
<!-- TwoFactorAuthenticationService&#45;&gt;AuthenticationModule -->
<g id="edge10" class="edge">
<title>TwoFactorAuthenticationService&#45;&gt;AuthenticationModule</title>
<path fill="none" stroke="black" d="M568,-84.81C568,-100.85 568,-121.8 568,-121.8 568,-121.8 709.52,-121.8 709.52,-121.8"/>
<polygon fill="black" stroke="black" points="709.52,-125.3 719.52,-121.8 709.52,-118.3 709.52,-125.3"/>
</g>
</g>
</svg>
