<?xml version="1.0" encoding="UTF-8" standalone="no"?>
<!DOCTYPE svg PUBLIC "-//W3C//DTD SVG 1.1//EN"
 "http://www.w3.org/Graphics/SVG/1.1/DTD/svg11.dtd">
<!-- Generated by graphviz version 3.0.0 (20220226.1711)
 -->
<!-- Title: dependencies Pages: 1 -->
<svg width="3623pt" height="174pt"
 viewBox="0.00 0.00 3623.00 173.80" xmlns="http://www.w3.org/2000/svg" xmlns:xlink="http://www.w3.org/1999/xlink">
<g id="graph0" class="graph" transform="scale(1 1) rotate(0) translate(4 169.8)">
<title>dependencies</title>
<polygon fill="white" stroke="transparent" points="-4,4 -4,-169.8 3619,-169.8 3619,4 -4,4"/>
<text text-anchor="middle" x="1807.5" y="-8.2" font-family="sans-serif" font-size="14.00">dependencies</text>
<g id="clust1" class="cluster">
<title>cluster_AppModule</title>
<polygon fill="none" stroke="black" stroke-dasharray="1,5" points="8,-32.8 8,-157.8 3607,-157.8 3607,-32.8 8,-32.8"/>
</g>
<g id="clust6" class="cluster">
<title>cluster_AppModule_providers</title>
<polygon fill="none" stroke="black" points="3469,-40.8 3469,-92.8 3599,-92.8 3599,-40.8 3469,-40.8"/>
</g>
<g id="clust3" class="cluster">
<title>cluster_AppModule_imports</title>
<polygon fill="none" stroke="black" points="16,-40.8 16,-92.8 3461,-92.8 3461,-40.8 16,-40.8"/>
</g>
<!-- AuthenticationModule -->
<g id="node1" class="node">
<title>AuthenticationModule</title>
<polygon fill="#8dd3c7" stroke="black" points="3453.25,-84.8 3450.25,-88.8 3429.25,-88.8 3426.25,-84.8 3310.75,-84.8 3310.75,-48.8 3453.25,-48.8 3453.25,-84.8"/>
<text text-anchor="middle" x="3382" y="-62.6" font-family="Times,serif" font-size="14.00">AuthenticationModule</text>
</g>
<!-- AppModule -->
<g id="node26" class="node">
<title>AppModule</title>
<polygon fill="#8dd3c7" stroke="black" points="1815.66,-149.8 1812.66,-153.8 1791.66,-153.8 1788.66,-149.8 1732.34,-149.8 1732.34,-113.8 1815.66,-113.8 1815.66,-149.8"/>
<text text-anchor="middle" x="1774" y="-127.6" font-family="Times,serif" font-size="14.00">AppModule</text>
</g>
<!-- AuthenticationModule&#45;&gt;AppModule -->
<g id="edge1" class="edge">
<title>AuthenticationModule&#45;&gt;AppModule</title>
<path fill="none" stroke="black" d="M3382,-84.89C3382,-107.93 3382,-144.8 3382,-144.8 3382,-144.8 1825.77,-144.8 1825.77,-144.8"/>
<polygon fill="black" stroke="black" points="1825.77,-141.3 1815.77,-144.8 1825.77,-148.3 1825.77,-141.3"/>
</g>
<!-- CategoriesModule -->
<g id="node2" class="node">
<title>CategoriesModule</title>
<polygon fill="#8dd3c7" stroke="black" points="3292.92,-84.8 3289.92,-88.8 3268.92,-88.8 3265.92,-84.8 3173.08,-84.8 3173.08,-48.8 3292.92,-48.8 3292.92,-84.8"/>
<text text-anchor="middle" x="3233" y="-62.6" font-family="Times,serif" font-size="14.00">CategoriesModule</text>
</g>
<!-- CategoriesModule&#45;&gt;AppModule -->
<g id="edge2" class="edge">
<title>CategoriesModule&#45;&gt;AppModule</title>
<path fill="none" stroke="black" d="M3233,-84.96C3233,-107.15 3233,-141.8 3233,-141.8 3233,-141.8 1825.7,-141.8 1825.7,-141.8"/>
<polygon fill="black" stroke="black" points="1825.7,-138.3 1815.7,-141.8 1825.7,-145.3 1825.7,-138.3"/>
</g>
<!-- ChargeModule -->
<g id="node3" class="node">
<title>ChargeModule</title>
<polygon fill="#8dd3c7" stroke="black" points="3154.98,-84.8 3151.98,-88.8 3130.98,-88.8 3127.98,-84.8 3055.02,-84.8 3055.02,-48.8 3154.98,-48.8 3154.98,-84.8"/>
<text text-anchor="middle" x="3105" y="-62.6" font-family="Times,serif" font-size="14.00">ChargeModule</text>
</g>
<!-- ChargeModule&#45;&gt;AppModule -->
<g id="edge3" class="edge">
<title>ChargeModule&#45;&gt;AppModule</title>
<path fill="none" stroke="black" d="M3105,-84.97C3105,-106.3 3105,-138.8 3105,-138.8 3105,-138.8 1826.03,-138.8 1826.03,-138.8"/>
<polygon fill="black" stroke="black" points="1826.03,-135.3 1816.03,-138.8 1826.03,-142.3 1826.03,-135.3"/>
</g>
<!-- ChatModule -->
<g id="node4" class="node">
<title>ChatModule</title>
<polygon fill="#8dd3c7" stroke="black" points="3036.99,-84.8 3033.99,-88.8 3012.99,-88.8 3009.99,-84.8 2951.01,-84.8 2951.01,-48.8 3036.99,-48.8 3036.99,-84.8"/>
<text text-anchor="middle" x="2994" y="-62.6" font-family="Times,serif" font-size="14.00">ChatModule</text>
</g>
<!-- ChatModule&#45;&gt;AppModule -->
<g id="edge4" class="edge">
<title>ChatModule&#45;&gt;AppModule</title>
<path fill="none" stroke="black" d="M2994,-84.83C2994,-105.57 2994,-136.8 2994,-136.8 2994,-136.8 1826,-136.8 1826,-136.8"/>
<polygon fill="black" stroke="black" points="1826,-133.3 1816,-136.8 1826,-140.3 1826,-133.3"/>
</g>
<!-- CommentsModule -->
<g id="node5" class="node">
<title>CommentsModule</title>
<polygon fill="#8dd3c7" stroke="black" points="2933.22,-84.8 2930.22,-88.8 2909.22,-88.8 2906.22,-84.8 2812.78,-84.8 2812.78,-48.8 2933.22,-48.8 2933.22,-84.8"/>
<text text-anchor="middle" x="2873" y="-62.6" font-family="Times,serif" font-size="14.00">CommentsModule</text>
</g>
<!-- CommentsModule&#45;&gt;AppModule -->
<g id="edge5" class="edge">
<title>CommentsModule&#45;&gt;AppModule</title>
<path fill="none" stroke="black" d="M2873,-85.11C2873,-104.95 2873,-133.8 2873,-133.8 2873,-133.8 1825.74,-133.8 1825.74,-133.8"/>
<polygon fill="black" stroke="black" points="1825.74,-130.3 1815.74,-133.8 1825.74,-137.3 1825.74,-130.3"/>
</g>
<!-- CreditCardsModule -->
<g id="node6" class="node">
<title>CreditCardsModule</title>
<polygon fill="#8dd3c7" stroke="black" points="2794.71,-84.8 2791.71,-88.8 2770.71,-88.8 2767.71,-84.8 2667.29,-84.8 2667.29,-48.8 2794.71,-48.8 2794.71,-84.8"/>
<text text-anchor="middle" x="2731" y="-62.6" font-family="Times,serif" font-size="14.00">CreditCardsModule</text>
</g>
<!-- CreditCardsModule&#45;&gt;AppModule -->
<g id="edge6" class="edge">
<title>CreditCardsModule&#45;&gt;AppModule</title>
<path fill="none" stroke="black" d="M2731,-84.97C2731,-103.89 2731,-130.8 2731,-130.8 2731,-130.8 1825.74,-130.8 1825.74,-130.8"/>
<polygon fill="black" stroke="black" points="1825.74,-127.3 1815.74,-130.8 1825.74,-134.3 1825.74,-127.3"/>
</g>
<!-- DatabaseModule -->
<g id="node7" class="node">
<title>DatabaseModule</title>
<polygon fill="#8dd3c7" stroke="black" points="2649.36,-84.8 2646.36,-88.8 2625.36,-88.8 2622.36,-84.8 2538.64,-84.8 2538.64,-48.8 2649.36,-48.8 2649.36,-84.8"/>
<text text-anchor="middle" x="2594" y="-62.6" font-family="Times,serif" font-size="14.00">DatabaseModule</text>
</g>
<!-- DatabaseModule&#45;&gt;AppModule -->
<g id="edge7" class="edge">
<title>DatabaseModule&#45;&gt;AppModule</title>
<path fill="none" stroke="black" d="M2594,-85.1C2594,-103.07 2594,-127.8 2594,-127.8 2594,-127.8 1825.79,-127.8 1825.79,-127.8"/>
<polygon fill="black" stroke="black" points="1825.79,-124.3 1815.79,-127.8 1825.79,-131.3 1825.79,-124.3"/>
</g>
<!-- EmailConfirmationModule -->
<g id="node8" class="node">
<title>EmailConfirmationModule</title>
<polygon fill="#8dd3c7" stroke="black" points="2520.42,-84.8 2517.42,-88.8 2496.42,-88.8 2493.42,-84.8 2351.58,-84.8 2351.58,-48.8 2520.42,-48.8 2520.42,-84.8"/>
<text text-anchor="middle" x="2436" y="-62.6" font-family="Times,serif" font-size="14.00">EmailConfirmationModule</text>
</g>
<!-- EmailConfirmationModule&#45;&gt;AppModule -->
<g id="edge8" class="edge">
<title>EmailConfirmationModule&#45;&gt;AppModule</title>
<path fill="none" stroke="black" d="M2436,-84.82C2436,-102.17 2436,-125.8 2436,-125.8 2436,-125.8 1825.91,-125.8 1825.91,-125.8"/>
<polygon fill="black" stroke="black" points="1825.91,-122.3 1815.91,-125.8 1825.91,-129.3 1825.91,-122.3"/>
</g>
<!-- EmailModule -->
<g id="node9" class="node">
<title>EmailModule</title>
<polygon fill="#8dd3c7" stroke="black" points="2333.49,-84.8 2330.49,-88.8 2309.49,-88.8 2306.49,-84.8 2240.51,-84.8 2240.51,-48.8 2333.49,-48.8 2333.49,-84.8"/>
<text text-anchor="middle" x="2287" y="-62.6" font-family="Times,serif" font-size="14.00">EmailModule</text>
</g>
<!-- EmailModule&#45;&gt;AppModule -->
<g id="edge9" class="edge">
<title>EmailModule&#45;&gt;AppModule</title>
<path fill="none" stroke="black" d="M2287,-84.83C2287,-101.2 2287,-122.8 2287,-122.8 2287,-122.8 1825.98,-122.8 1825.98,-122.8"/>
<polygon fill="black" stroke="black" points="1825.98,-119.3 1815.98,-122.8 1825.98,-126.3 1825.98,-119.3"/>
</g>
<!-- EmailSchedulingModule -->
<g id="node10" class="node">
<title>EmailSchedulingModule</title>
<polygon fill="#8dd3c7" stroke="black" points="2222.98,-84.8 2219.98,-88.8 2198.98,-88.8 2195.98,-84.8 2067.02,-84.8 2067.02,-48.8 2222.98,-48.8 2222.98,-84.8"/>
<text text-anchor="middle" x="2145" y="-62.6" font-family="Times,serif" font-size="14.00">EmailSchedulingModule</text>
</g>
<!-- EmailSchedulingModule&#45;&gt;AppModule -->
<g id="edge10" class="edge">
<title>EmailSchedulingModule&#45;&gt;AppModule</title>
<path fill="none" stroke="black" d="M2145,-85.04C2145,-100.37 2145,-119.8 2145,-119.8 2145,-119.8 1825.84,-119.8 1825.84,-119.8"/>
<polygon fill="black" stroke="black" points="1825.84,-116.3 1815.84,-119.8 1825.84,-123.3 1825.84,-116.3"/>
</g>
<!-- FilesModule -->
<g id="node11" class="node">
<title>FilesModule</title>
<polygon fill="#8dd3c7" stroke="black" points="2049.28,-84.8 2046.28,-88.8 2025.28,-88.8 2022.28,-84.8 1962.72,-84.8 1962.72,-48.8 2049.28,-48.8 2049.28,-84.8"/>
<text text-anchor="middle" x="2006" y="-62.6" font-family="Times,serif" font-size="14.00">FilesModule</text>
</g>
<!-- FilesModule&#45;&gt;AppModule -->
<g id="edge11" class="edge">
<title>FilesModule&#45;&gt;AppModule</title>
<path fill="none" stroke="black" d="M2006,-84.85C2006,-99.17 2006,-116.8 2006,-116.8 2006,-116.8 1825.74,-116.8 1825.74,-116.8"/>
<polygon fill="black" stroke="black" points="1825.74,-113.3 1815.74,-116.8 1825.74,-120.3 1825.74,-113.3"/>
</g>
<!-- GoogleAuthenticationModule -->
<g id="node12" class="node">
<title>GoogleAuthenticationModule</title>
<polygon fill="#8dd3c7" stroke="black" points="1944.97,-84.8 1941.97,-88.8 1920.97,-88.8 1917.97,-84.8 1761.03,-84.8 1761.03,-48.8 1944.97,-48.8 1944.97,-84.8"/>
<text text-anchor="middle" x="1853" y="-62.6" font-family="Times,serif" font-size="14.00">GoogleAuthenticationModule</text>
</g>
<!-- GoogleAuthenticationModule&#45;&gt;AppModule -->
<g id="edge12" class="edge">
<title>GoogleAuthenticationModule&#45;&gt;AppModule</title>
<path fill="none" stroke="black" d="M1788.42,-84.91C1788.42,-84.91 1788.42,-103.79 1788.42,-103.79"/>
<polygon fill="black" stroke="black" points="1784.92,-103.79 1788.42,-113.79 1791.92,-103.79 1784.92,-103.79"/>
</g>
<!-- HealthModule -->
<g id="node13" class="node">
<title>HealthModule</title>
<polygon fill="#8dd3c7" stroke="black" points="1743.37,-84.8 1740.37,-88.8 1719.37,-88.8 1716.37,-84.8 1646.63,-84.8 1646.63,-48.8 1743.37,-48.8 1743.37,-84.8"/>
<text text-anchor="middle" x="1695" y="-62.6" font-family="Times,serif" font-size="14.00">HealthModule</text>
</g>
<!-- HealthModule&#45;&gt;AppModule -->
<g id="edge13" class="edge">
<title>HealthModule&#45;&gt;AppModule</title>
<path fill="none" stroke="black" d="M1737.8,-84.91C1737.8,-84.91 1737.8,-103.79 1737.8,-103.79"/>
<polygon fill="black" stroke="black" points="1734.3,-103.79 1737.8,-113.79 1741.3,-103.79 1734.3,-103.79"/>
</g>
<!-- LoggerModule -->
<g id="node14" class="node">
<title>LoggerModule</title>
<polygon fill="#8dd3c7" stroke="black" points="1628.98,-84.8 1625.98,-88.8 1604.98,-88.8 1601.98,-84.8 1529.02,-84.8 1529.02,-48.8 1628.98,-48.8 1628.98,-84.8"/>
<text text-anchor="middle" x="1579" y="-62.6" font-family="Times,serif" font-size="14.00">LoggerModule</text>
</g>
<!-- LoggerModule&#45;&gt;AppModule -->
<g id="edge14" class="edge">
<title>LoggerModule&#45;&gt;AppModule</title>
<path fill="none" stroke="black" d="M1579,-84.85C1579,-99.17 1579,-116.8 1579,-116.8 1579,-116.8 1722.17,-116.8 1722.17,-116.8"/>
<polygon fill="black" stroke="black" points="1722.17,-120.3 1732.17,-116.8 1722.17,-113.3 1722.17,-120.3"/>
</g>
<!-- OptimizeModule -->
<g id="node15" class="node">
<title>OptimizeModule</title>
<polygon fill="#8dd3c7" stroke="black" points="1510.65,-84.8 1507.65,-88.8 1486.65,-88.8 1483.65,-84.8 1399.35,-84.8 1399.35,-48.8 1510.65,-48.8 1510.65,-84.8"/>
<text text-anchor="middle" x="1455" y="-62.6" font-family="Times,serif" font-size="14.00">OptimizeModule</text>
</g>
<!-- OptimizeModule&#45;&gt;AppModule -->
<g id="edge15" class="edge">
<title>OptimizeModule&#45;&gt;AppModule</title>
<path fill="none" stroke="black" d="M1455,-85.04C1455,-100.37 1455,-119.8 1455,-119.8 1455,-119.8 1722.3,-119.8 1722.3,-119.8"/>
<polygon fill="black" stroke="black" points="1722.3,-123.3 1732.3,-119.8 1722.3,-116.3 1722.3,-123.3"/>
</g>
<!-- PostsModule -->
<g id="node16" class="node">
<title>PostsModule</title>
<polygon fill="#8dd3c7" stroke="black" points="1381.62,-84.8 1378.62,-88.8 1357.62,-88.8 1354.62,-84.8 1292.38,-84.8 1292.38,-48.8 1381.62,-48.8 1381.62,-84.8"/>
<text text-anchor="middle" x="1337" y="-62.6" font-family="Times,serif" font-size="14.00">PostsModule</text>
</g>
<!-- PostsModule&#45;&gt;AppModule -->
<g id="edge16" class="edge">
<title>PostsModule&#45;&gt;AppModule</title>
<path fill="none" stroke="black" d="M1337,-84.83C1337,-101.2 1337,-122.8 1337,-122.8 1337,-122.8 1722.1,-122.8 1722.1,-122.8"/>
<polygon fill="black" stroke="black" points="1722.1,-126.3 1732.1,-122.8 1722.1,-119.3 1722.1,-126.3"/>
</g>
<!-- ProductCategoriesModule -->
<g id="node17" class="node">
<title>ProductCategoriesModule</title>
<polygon fill="#8dd3c7" stroke="black" points="1274.47,-84.8 1271.47,-88.8 1250.47,-88.8 1247.47,-84.8 1111.53,-84.8 1111.53,-48.8 1274.47,-48.8 1274.47,-84.8"/>
<text text-anchor="middle" x="1193" y="-62.6" font-family="Times,serif" font-size="14.00">ProductCategoriesModule</text>
</g>
<!-- ProductCategoriesModule&#45;&gt;AppModule -->
<g id="edge17" class="edge">
<title>ProductCategoriesModule&#45;&gt;AppModule</title>
<path fill="none" stroke="black" d="M1193,-84.82C1193,-102.17 1193,-125.8 1193,-125.8 1193,-125.8 1722.22,-125.8 1722.22,-125.8"/>
<polygon fill="black" stroke="black" points="1722.22,-129.3 1732.22,-125.8 1722.22,-122.3 1722.22,-129.3"/>
</g>
<!-- ProductsModule -->
<g id="node18" class="node">
<title>ProductsModule</title>
<polygon fill="#8dd3c7" stroke="black" points="1093.05,-84.8 1090.05,-88.8 1069.05,-88.8 1066.05,-84.8 984.95,-84.8 984.95,-48.8 1093.05,-48.8 1093.05,-84.8"/>
<text text-anchor="middle" x="1039" y="-62.6" font-family="Times,serif" font-size="14.00">ProductsModule</text>
</g>
<!-- ProductsModule&#45;&gt;AppModule -->
<g id="edge18" class="edge">
<title>ProductsModule&#45;&gt;AppModule</title>
<path fill="none" stroke="black" d="M1039,-85.1C1039,-103.07 1039,-127.8 1039,-127.8 1039,-127.8 1722.11,-127.8 1722.11,-127.8"/>
<polygon fill="black" stroke="black" points="1722.11,-131.3 1732.11,-127.8 1722.11,-124.3 1722.11,-131.3"/>
</g>
<!-- PubSubModule -->
<g id="node19" class="node">
<title>PubSubModule</title>
<polygon fill="#8dd3c7" stroke="black" points="966.62,-84.8 963.62,-88.8 942.62,-88.8 939.62,-84.8 863.38,-84.8 863.38,-48.8 966.62,-48.8 966.62,-84.8"/>
<text text-anchor="middle" x="915" y="-62.6" font-family="Times,serif" font-size="14.00">PubSubModule</text>
</g>
<!-- PubSubModule&#45;&gt;AppModule -->
<g id="edge19" class="edge">
<title>PubSubModule&#45;&gt;AppModule</title>
<path fill="none" stroke="black" d="M915,-84.97C915,-103.89 915,-130.8 915,-130.8 915,-130.8 1722.28,-130.8 1722.28,-130.8"/>
<polygon fill="black" stroke="black" points="1722.28,-134.3 1732.28,-130.8 1722.28,-127.3 1722.28,-134.3"/>
</g>
<!-- SmsModule -->
<g id="node20" class="node">
<title>SmsModule</title>
<polygon fill="#8dd3c7" stroke="black" points="845.68,-84.8 842.68,-88.8 821.68,-88.8 818.68,-84.8 762.32,-84.8 762.32,-48.8 845.68,-48.8 845.68,-84.8"/>
<text text-anchor="middle" x="804" y="-62.6" font-family="Times,serif" font-size="14.00">SmsModule</text>
</g>
<!-- SmsModule&#45;&gt;AppModule -->
<g id="edge20" class="edge">
<title>SmsModule&#45;&gt;AppModule</title>
<path fill="none" stroke="black" d="M804,-85.11C804,-104.95 804,-133.8 804,-133.8 804,-133.8 1722.32,-133.8 1722.32,-133.8"/>
<polygon fill="black" stroke="black" points="1722.32,-137.3 1732.32,-133.8 1722.32,-130.3 1722.32,-137.3"/>
</g>
<!-- StripeWebhookModule -->
<g id="node21" class="node">
<title>StripeWebhookModule</title>
<polygon fill="#8dd3c7" stroke="black" points="743.92,-84.8 740.92,-88.8 719.92,-88.8 716.92,-84.8 596.08,-84.8 596.08,-48.8 743.92,-48.8 743.92,-84.8"/>
<text text-anchor="middle" x="670" y="-62.6" font-family="Times,serif" font-size="14.00">StripeWebhookModule</text>
</g>
<!-- StripeWebhookModule&#45;&gt;AppModule -->
<g id="edge21" class="edge">
<title>StripeWebhookModule&#45;&gt;AppModule</title>
<path fill="none" stroke="black" d="M670,-84.83C670,-105.57 670,-136.8 670,-136.8 670,-136.8 1722.07,-136.8 1722.07,-136.8"/>
<polygon fill="black" stroke="black" points="1722.07,-140.3 1732.07,-136.8 1722.07,-133.3 1722.07,-140.3"/>
</g>
<!-- SubscribersGrpcModule -->
<g id="node22" class="node">
<title>SubscribersGrpcModule</title>
<polygon fill="#8dd3c7" stroke="black" points="578.36,-84.8 575.36,-88.8 554.36,-88.8 551.36,-84.8 425.64,-84.8 425.64,-48.8 578.36,-48.8 578.36,-84.8"/>
<text text-anchor="middle" x="502" y="-62.6" font-family="Times,serif" font-size="14.00">SubscribersGrpcModule</text>
</g>
<!-- SubscribersGrpcModule&#45;&gt;AppModule -->
<g id="edge22" class="edge">
<title>SubscribersGrpcModule&#45;&gt;AppModule</title>
<path fill="none" stroke="black" d="M502,-84.97C502,-106.3 502,-138.8 502,-138.8 502,-138.8 1722.04,-138.8 1722.04,-138.8"/>
<polygon fill="black" stroke="black" points="1722.04,-142.3 1732.04,-138.8 1722.04,-135.3 1722.04,-142.3"/>
</g>
<!-- SubscribersModule -->
<g id="node23" class="node">
<title>SubscribersModule</title>
<polygon fill="#8dd3c7" stroke="black" points="407.38,-84.8 404.38,-88.8 383.38,-88.8 380.38,-84.8 282.62,-84.8 282.62,-48.8 407.38,-48.8 407.38,-84.8"/>
<text text-anchor="middle" x="345" y="-62.6" font-family="Times,serif" font-size="14.00">SubscribersModule</text>
</g>
<!-- SubscribersModule&#45;&gt;AppModule -->
<g id="edge23" class="edge">
<title>SubscribersModule&#45;&gt;AppModule</title>
<path fill="none" stroke="black" d="M345,-84.96C345,-107.15 345,-141.8 345,-141.8 345,-141.8 1722.01,-141.8 1722.01,-141.8"/>
<polygon fill="black" stroke="black" points="1722.01,-145.3 1732.01,-141.8 1722.01,-138.3 1722.01,-145.3"/>
</g>
<!-- SubscriptionModule -->
<g id="node24" class="node">
<title>SubscriptionModule</title>
<polygon fill="#8dd3c7" stroke="black" points="264.33,-84.8 261.33,-88.8 240.33,-88.8 237.33,-84.8 133.67,-84.8 133.67,-48.8 264.33,-48.8 264.33,-84.8"/>
<text text-anchor="middle" x="199" y="-62.6" font-family="Times,serif" font-size="14.00">SubscriptionModule</text>
</g>
<!-- SubscriptionModule&#45;&gt;AppModule -->
<g id="edge24" class="edge">
<title>SubscriptionModule&#45;&gt;AppModule</title>
<path fill="none" stroke="black" d="M199,-84.89C199,-107.93 199,-144.8 199,-144.8 199,-144.8 1722.28,-144.8 1722.28,-144.8"/>
<polygon fill="black" stroke="black" points="1722.28,-148.3 1732.28,-144.8 1722.28,-141.3 1722.28,-148.3"/>
</g>
<!-- UsersModule -->
<g id="node25" class="node">
<title>UsersModule</title>
<polygon fill="#8dd3c7" stroke="black" points="115.94,-84.8 112.94,-88.8 91.94,-88.8 88.94,-84.8 24.06,-84.8 24.06,-48.8 115.94,-48.8 115.94,-84.8"/>
<text text-anchor="middle" x="70" y="-62.6" font-family="Times,serif" font-size="14.00">UsersModule</text>
</g>
<!-- UsersModule&#45;&gt;AppModule -->
<g id="edge25" class="edge">
<title>UsersModule&#45;&gt;AppModule</title>
<path fill="none" stroke="black" d="M70,-85.18C70,-109.08 70,-147.8 70,-147.8 70,-147.8 1722.3,-147.8 1722.3,-147.8"/>
<polygon fill="black" stroke="black" points="1722.3,-151.3 1732.3,-147.8 1722.3,-144.3 1722.3,-151.3"/>
</g>
<!-- AppService -->
<g id="node27" class="node">
<title>AppService</title>
<ellipse fill="#fdb462" stroke="black" cx="3534" cy="-66.8" rx="56.75" ry="18"/>
<text text-anchor="middle" x="3534" y="-62.6" font-family="Times,serif" font-size="14.00">AppService</text>
</g>
<!-- AppService&#45;&gt;AppModule -->
<g id="edge26" class="edge">
<title>AppService&#45;&gt;AppModule</title>
<path fill="none" stroke="black" d="M3534,-85.18C3534,-109.08 3534,-147.8 3534,-147.8 3534,-147.8 1825.77,-147.8 1825.77,-147.8"/>
<polygon fill="black" stroke="black" points="1825.77,-144.3 1815.77,-147.8 1825.77,-151.3 1825.77,-144.3"/>
</g>
</g>
</svg>
