<?xml version="1.0" encoding="UTF-8" standalone="no"?>
<!DOCTYPE svg PUBLIC "-//W3C//DTD SVG 1.1//EN"
 "http://www.w3.org/Graphics/SVG/1.1/DTD/svg11.dtd">
<!-- Generated by graphviz version 3.0.0 (20220226.1711)
 -->
<!-- Title: dependencies Pages: 1 -->
<svg width="358pt" height="174pt"
 viewBox="0.00 0.00 358.00 173.80" xmlns="http://www.w3.org/2000/svg" xmlns:xlink="http://www.w3.org/1999/xlink">
<g id="graph0" class="graph" transform="scale(1 1) rotate(0) translate(4 169.8)">
<title>dependencies</title>
<polygon fill="white" stroke="transparent" points="-4,4 -4,-169.8 354,-169.8 354,4 -4,4"/>
<text text-anchor="middle" x="175" y="-8.2" font-family="sans-serif" font-size="14.00">dependencies</text>
<g id="clust1" class="cluster">
<title>cluster_SubscriptionModule</title>
<polygon fill="none" stroke="black" stroke-dasharray="1,5" points="8,-32.8 8,-157.8 342,-157.8 342,-32.8 8,-32.8"/>
</g>
<g id="clust6" class="cluster">
<title>cluster_SubscriptionModule_providers</title>
<polygon fill="none" stroke="black" points="132,-40.8 132,-92.8 334,-92.8 334,-40.8 132,-40.8"/>
</g>
<g id="clust3" class="cluster">
<title>cluster_SubscriptionModule_imports</title>
<polygon fill="none" stroke="black" points="16,-40.8 16,-92.8 124,-92.8 124,-40.8 16,-40.8"/>
</g>
<!-- StripeModule -->
<g id="node1" class="node">
<title>StripeModule</title>
<polygon fill="#8dd3c7" stroke="black" points="116.49,-84.8 113.49,-88.8 92.49,-88.8 89.49,-84.8 23.51,-84.8 23.51,-48.8 116.49,-48.8 116.49,-84.8"/>
<text text-anchor="middle" x="70" y="-62.6" font-family="Times,serif" font-size="14.00">StripeModule</text>
</g>
<!-- SubscriptionModule -->
<g id="node2" class="node">
<title>SubscriptionModule</title>
<polygon fill="#8dd3c7" stroke="black" points="222.33,-149.8 219.33,-153.8 198.33,-153.8 195.33,-149.8 91.67,-149.8 91.67,-113.8 222.33,-113.8 222.33,-149.8"/>
<text text-anchor="middle" x="157" y="-127.6" font-family="Times,serif" font-size="14.00">SubscriptionModule</text>
</g>
<!-- StripeModule&#45;&gt;SubscriptionModule -->
<g id="edge1" class="edge">
<title>StripeModule&#45;&gt;SubscriptionModule</title>
<path fill="none" stroke="black" d="M104.17,-84.91C104.17,-84.91 104.17,-103.79 104.17,-103.79"/>
<polygon fill="black" stroke="black" points="100.67,-103.79 104.17,-113.79 107.67,-103.79 100.67,-103.79"/>
</g>
<!-- SubscriptionsService -->
<g id="node3" class="node">
<title>SubscriptionsService</title>
<ellipse fill="#fdb462" stroke="black" cx="233" cy="-66.8" rx="92.65" ry="18"/>
<text text-anchor="middle" x="233" y="-62.6" font-family="Times,serif" font-size="14.00">SubscriptionsService</text>
</g>
<!-- SubscriptionsService&#45;&gt;SubscriptionModule -->
<g id="edge2" class="edge">
<title>SubscriptionsService&#45;&gt;SubscriptionModule</title>
<path fill="none" stroke="black" d="M181.3,-81.88C181.3,-81.88 181.3,-103.56 181.3,-103.56"/>
<polygon fill="black" stroke="black" points="177.8,-103.56 181.3,-113.56 184.8,-103.56 177.8,-103.56"/>
</g>
</g>
</svg>
